# xmcd
#
# Track frame offsets:
#	187
#	14837
#	29577
#	41842
#	57362
#	75852
#	91185
#	104040
#	118162
#	136542
#
# Disc length: 2062 seconds
#
# Revision: 2
# Processed by: cddbd v1.5.1PL0 Copyright (c) Steve Scherf et al.
# Submitted via: audiograbber 1.83.01
#
DISCID=81080c0a
DTITLE=Various Artist - Number One Hits of the 80's
DYEAR=1988
DGENRE=Country
TTITLE0=John Schneider - Country Girls
TTITLE1=George Strait - Does Ft. Worth Ever Cross Your Mind
TTITLE2=Reba McEntire - How Blue
TTITLE3=Oak Ridge Boys - Little Things
TTITLE4=Steve Wariner - Some Fools Never Learn
TTITLE5=John Schneider - What's a Memory Like You (Doing in a Love Like This)
TTITLE6=George Strait - The Chair
TTITLE7=Reba McEntire - Little Rock
TTITLE8=Oak Ridge Boys - Make My Life with You
TTITLE9=Steve Wariner - You Can Dream of Me
EXTD=
EXTT0=
EXTT1=
EXTT2=
EXTT3=
EXTT4=
EXTT5=
EXTT6=
EXTT7=
EXTT8=
EXTT9=
PLAYORDER=
